<svg viewBox="0 0 1381 1075.597" xmlns="http://www.w3.org/2000/svg"><path d="M366 521q0 31-21.5 52T293 594q-31 0-52.5-21T219 521q0-30 21.5-51.5T293 448q30 0 51.5 21.5T366 521zm219 0q0 31-21.5 52T512 594q-30 0-51.5-21T439 521q0-30 21.5-51.5T512 448q30 0 51.5 21.5T585 521zm220 0q0 31-21.5 52T731 594q-30 0-51.5-21T658 521q0-30 21.5-51.5T731 448q31 0 52.5 21.5T805 521zM512 229q-89 0-169 23t-140 63q-60 40-95 93-35 54-35 113 0 64 41 122t115 100l50 29-16 55q-8 30-18 54t-22 44q44-18 83-42.5t75-55.5l24-21 33 3q18 2 37 3.5t37 1.5q89 0 169-24 80-23 140-63t95-93q35-53 35-113 0-59-35-113-35-53-95-93t-140-63q-80-23-169-23zm512 292q0 76-40 143-40 66-109.5 115.5T711 858q-93 29-199 29-21 0-42-1.5t-41-3.5q-56 50-122.5 85T166 1021q-15 4-31.5 7t-33.5 5h-3q-8 0-15-6t-9-16q-2-11 3.5-18.5T89 978q27-31 55.5-65T193 807q-44-25-80-56-35-32-60.5-68.5T14 605Q0 565 0 521q0-75 40-142t109.5-116.5Q219 213 313 184q93-29 199-29t199 29q94 29 163.5 78.5T984 379q40 67 40 142z"/></svg>