<svg viewBox="0 0 1381 1075.597" xmlns="http://www.w3.org/2000/svg"><path d="M821 531q0 90-29 165t-81.5 129Q658 879 584 910q-74 30-165 30-87 0-163-33-77-33-133.5-89.5T33 684Q0 608 0 521t33-163q33-76 89.5-133T256 135q76-33 163-33 85 0 155.5 29.5T699 212L586 321q-23-22-64.5-43T419 257q-54 0-101 20-47 21-82.5 57T180 418q-21 48-21 103t21 103q20 48 55.5 84t82.5 57q47 21 101 21 62 0 106-20 43-20 71-48t43-59q14-31 18-54H419V461h395q3 16 5 32.5t2 37.5zm496-70v120h-120v120h-120V581H958V461h119V342h120v119h120z"/></svg>