<svg viewBox="0 0 1381 1075.597" xmlns="http://www.w3.org/2000/svg"><path d="M1014 487l10 180q2 31-27 57-28 27-78.5 47T801 802q-67 12-143 12-75 0-143-12-67-11-117-31t-79-47q-28-26-26-57l10-180 328 103q7 2 13.5 3t13.5 1q7 0 14-1t14-3l328-103zm303-185q0 6-3.5 10.5t-9.5 6.5L664 521h-11L280 403q-24 19-40.5 63.5T220 569q16 9 26 25.5t10 36.5q0 19-9 35t-24 26l33 247q0 4-1 8t-4 7q-2 3-5.5 4.5T238 960H128q-4 0-7.5-1.5T114 954q-2-3-3.5-7t-.5-8l33-247q-15-10-24-26t-9-35q0-21 10.5-37.5T147 567q2-50 15.5-100.5T203 379L13 319q-6-2-9.5-6.5T0 302q0-6 3.5-11t9.5-7L653 83q1-1 2.5-1h5.5q1 0 3 1l640 201q6 2 9.5 7t3.5 11z"/></svg>