<svg viewBox="0 0 1381 1075.597" xmlns="http://www.w3.org/2000/svg"><path d="M110 667q36 0 36-36.5T110 594q-36 0-36 36.5t36 36.5zm841-33q-33-44-67.5-88T811 462l-72 80q-47 53-118.5 52T503 538q-33-39-32.5-90t33.5-90l101-117q-26-14-57-13t-59 1q-26 0-49.5 9.5T398 266l-90 91h-89v310q19 0 36 1t32 15l170 167q26 26 59.5 45t70.5 19q19 0 38.5-6.5T658 887q32 11 64-4.5t42-48.5q21 1 39.5-5t33.5-20q9-9 19-25t9-30q4 4 12 4.5t13 .5q51 0 72-42t-11-83zm91 33h55V375h-53l-90-103q-18-21-43.5-32T858 229h-96q-24 0-46 10t-37 28L559 406q-15 19-15.5 43t15.5 42q24 30 62.5 30t63.5-28l110-124q20-22 46-7.5t17 42.5q16 19 33 37.5t33 37.5q21 26 42 53.5t42 54.5q13 18 22.5 38t11.5 42zm165 0q36 0 36-36.5t-36-36.5q-36 0-36 36.5t36 36.5zm110-329v366q0 15-11 26t-26 11h-248q-15 37-47 60.5T914 831q-19 27-46 46.5T809 903q-23 30-59 47t-74 14q-71 40-144.5 15T405 902L241 741H37q-15 0-26-11T0 704V320q0-15 11-26t26-11h240q50-49 93.5-88.5T489 155h66q28 0 54.5 8.5T659 187q23-15 49-23.5t54-8.5h96q81 0 125.5 45t93.5 102h203q15 0 26 10.5t11 25.5z"/></svg>