<svg viewBox="0 0 1381 1075.597" xmlns="http://www.w3.org/2000/svg"><path d="M585 655q0 38-21.5 62T512 741H219q-30 0-51.5-24T146 655q0-66 22.5-126t89.5-60q21 12 48.5 27.5T366 512q31 0 58.5-15.5T473 469q68 0 90 60t22 126zm-90-297q0 54-38 92t-91 38q-54 0-92-38t-38-92q0-53 38-91t92-38q53 0 91 38t38 91zm529 255v36q0 8-5.5 13t-12.5 5H677q-8 0-13.5-5t-5.5-13v-36q0-8 5.5-13.5T677 594h329q7 0 12.5 5.5t5.5 13.5zm0-144v32q0 8-6 14t-15 6H679q-9 0-15-6t-6-14v-32q0-9 6-15t15-6h324q9 0 15 6t6 15zm0-149v37q0 7-5.5 12.5T1006 375H677q-8 0-13.5-5.5T658 357v-37q0-8 5.5-13t13.5-5h329q7 0 12.5 5t5.5 13zm73 549V174q0-8-5.5-13.5T1079 155H91q-7 0-12.5 5.5T73 174v695q0 7 5.5 12.5T91 887h202v-55q0-8 5-13t13-5h36q8 0 13.5 5t5.5 13v55h439v-55q0-8 5-13t13-5h36q8 0 13.5 5t5.5 13v55h201q7 0 12.5-5.5t5.5-12.5zm73-695v695q0 37-26.5 64t-64.5 27H91q-37 0-64-27T0 869V174q0-38 27-65t64-27h988q38 0 64.5 27t26.5 65z"/></svg>