<svg viewBox="0 0 1381 1075.597" xmlns="http://www.w3.org/2000/svg"><path d="M585 521q0-60-43-103t-103-43q-61 0-103.5 43T293 521q0 61 42.5 103.5T439 667q60 0 103-42.5T585 521zm79 0q0 47-18 88-17 41-47.5 71.5T527 729q-41 17-88 17t-88-17q-41-18-71.5-48.5T231 609q-17-41-17-88t17-88q18-41 48.5-71.5T351 314q41-18 88-18t88 18q41 17 71.5 47.5T646 433q18 41 18 88zm62-234q0 22-15.5 37T673 339q-22 0-37-15t-15-37q0-22 15-37.5t37-15.5q22 0 37.5 15.5T726 287zM439 161h-59q-36-1-73 .5t-71 4.5q-34 4-56 13-15 6-27 13.5T130 212q-12 12-19.5 23.5T97 262q-9 22-13 56t-5 71q-1 37-1 73 1 35 1 59t-1 59q0 36 1 73t5 71q4 34 13 56 6 15 13.5 27t19.5 23q11 12 23 19.5t27 13.5q22 9 56 13t71 5q37 1 73 1 35-1 59-1t59 1q36 0 73-1t71-5q34-4 56-13 15-6 26.5-13.5T748 830q12-11 19.5-23t13.5-27q9-22 13-56 3-34 4.5-71t.5-73v-59-59q1-36-.5-73t-4.5-71q-4-34-13-56-6-15-13.5-26.5T748 212q-12-12-23.5-19.5T698 179q-22-9-56-13-34-3-71-4.5t-73-.5h-59zm439 360q0 46-.5 91t-2.5 90q-3 53-17.5 99.5T804 886q-39 39-85 54t-99 17q-45 3-90.5 3H348q-45 0-90-3-53-2-99.5-17T74 886q-39-38-54-84.5T3 702q-3-45-3-90v-91-90.5Q0 385 3 340q2-53 17-99t54-85q38-39 84.5-53.5T258 85q45-2 90-2.5t91-.5q45 0 90.5.5T620 85q53 3 99 17.5t85 53.5q39 39 53.5 85t17.5 99q2 45 2.5 90.5t.5 90.5z"/></svg>