<svg viewBox="0 0 1381 1075.597" xmlns="http://www.w3.org/2000/svg"><path d="M478 677l-9 210-1 13-240-17q-22-1-39.5-18.5T163 828q-17-40-3-84.5t27-82.5l53 4.5q53 4.5 238 11.5zM257 342l102 217-84-53q-96 110-118 183l-22 73L26 558q-16-25-9-47l7-22 15.5-27Q55 435 89 382L9 333l248 9zm703 296L853 843q-12 28-34 34l-22 6-31 2.5q-31 2.5-95 4.5l5 94-131-210 120-207 4 99q145 18 218-5l73-23zM511 110l-29 44q-29 44-122 204L179 251l-11-6L297 41q12-19 35.5-26t44.5-5q42 4 74.5 37t59.5 63zm375 175l121 208q11 19 6.5 43T998 578q-23 36-67.5 49.5T847 652l-26-46.5Q795 559 696 403l179-112 11-6zm-82-129l81-47-126 213-239-12 86-49Q555 124 501 70l-54-54 231 1q30-3 46 13.5L740 47l16.5 27q16.5 27 47.5 82z"/></svg>