<svg viewBox="0 0 1381 1075.597" xmlns="http://www.w3.org/2000/svg"><path d="M987 265L768 667h439L987 265zm-731 0L37 667h438L256 265zm469-110q-8 24-26 41.5T658 222v738h348q7 0 12.5 5.5t5.5 12.5v37q0 8-5.5 13t-12.5 5H238q-8 0-13.5-5t-5.5-13v-37q0-7 5.5-12.5T238 960h347V222q-23-8-41-25.5T518 155H238q-8 0-13.5-5t-5.5-13v-36q0-8 5.5-13.5T238 82h280q12-32 40-52.5T622 9q36 0 64 20.5T725 82h281q7 0 12.5 5.5t5.5 13.5v36q0 8-5.5 13t-12.5 5H725zm-103 10q19 0 32-13.5t13-32.5q0-19-13-32.5T622 73q-19 0-32.5 13.5T576 119q0 19 13.5 32.5T622 165zm621 502q0 45-26 76-27 31-66.5 51t-83.5 29q-45 9-80 9-34 0-79-9-44-9-83.5-29T758 743q-27-31-27-76 0-8 32-68 32-61 71.5-133.5T910 329q36-65 45-82 5-8 14-13t18-5q10 0 19 5t13 13q10 17 46 82 36 64 75.5 136.5T1212 599q31 60 31 68zm-731 0q0 45-27 76t-66 51q-39 20-84 29-44 9-79 9t-79-9q-45-9-84-29t-66-51Q0 712 0 667q0-8 32-68 31-61 70.5-133.5T179 329q36-65 45-82 5-8 13.5-13t18.5-5q10 0 18.5 5t13.5 13q9 17 45 82 37 64 76.5 136.5T480 599q32 60 32 68z"/></svg>