<svg viewBox="0 0 1381 1075.597" xmlns="http://www.w3.org/2000/svg"><path d="M819 151q5 6 5 13.5t-5 13.5L461 535q-5 6-13 6t-13-6l-47-46q-6-6-6-13.5t6-13.5l25-25q-41-52-46.5-118T393 196q-20-19-45.5-30T293 155q-61 0-104 43t-43 104v731H0V302q0-61 23-114t63-93q40-40 93-63T293 9q61 0 115 24t94 65q54-22 112.5-14T721 130l25-25q5-6 12.5-6t13.5 6l47 46zm-51 151q15 0 26 10.5t11 25.5q0 15-11 26t-26 11q-15 0-26-11t-11-26q0-15 11-25.5t26-10.5zm146 73q-15 0-25.5-11T878 338q0-15 10.5-25.5T914 302q15 0 26 10.5t11 25.5q0 15-11 26t-26 11zm147-73q15 0 25.5 10.5T1097 338q0 15-10.5 26t-25.5 11q-15 0-26-11t-11-26q0-15 11-25.5t26-10.5zm-366 73q15 0 25.5 10.5T731 411q0 15-10.5 26T695 448q-15 0-26-11t-11-26q0-15 11-25.5t26-10.5zm110 36q0-15 10.5-25.5T841 375q15 0 26 10.5t11 25.5q0 15-11 26t-26 11q-15 0-25.5-11T805 411zm182-36q15 0 26 10.5t11 25.5q0 15-11 26t-26 11q-15 0-25.5-11T951 411q0-15 10.5-25.5T987 375zm-365 73q15 0 25.5 11t10.5 26q0 15-10.5 25.5T622 521q-15 0-26-10.5T585 485q0-15 11-26t26-11zm146 73q-15 0-26-10.5T731 485q0-15 11-26t26-11q15 0 26 11t11 26q0 15-11 25.5T768 521zm146-73q15 0 26 11t11 26q0 15-11 25.5T914 521q-15 0-25.5-10.5T878 485q0-15 10.5-26t25.5-11zM695 594q-15 0-26-10.5T658 558q0-15 11-26t26-11q15 0 25.5 11t10.5 26q0 15-10.5 25.5T695 594zm146-73q15 0 26 11t11 26q0 15-11 25.5T841 594q-15 0-25.5-10.5T805 558q0-15 10.5-26t25.5-11zm-219 73q15 0 25.5 11t10.5 26q0 15-10.5 25.5T622 667q-15 0-26-10.5T585 631q0-15 11-26t26-11zm146 0q15 0 26 11t11 26q0 15-11 25.5T768 667q-15 0-26-10.5T731 631q0-15 11-26t26-11zm-73 73q15 0 25.5 11t10.5 26q0 15-10.5 26T695 741q-15 0-26-11t-11-26q0-15 11-26t26-11zm-73 74q15 0 25.5 10.5T658 777q0 15-10.5 26T622 814q-15 0-26-11t-11-26q0-15 11-25.5t26-10.5z"/></svg>