<svg viewBox="0 0 1381 1075.597" xmlns="http://www.w3.org/2000/svg"><path d="M1117 579q-12 0-21.5-7t-13.5-17q-3 3-7 5t-9 3v205h96V566q-1 0-1.5 1t-1.5 1q-9 4-18.5 7t-20.5 4h-3zm149 249H115q-7 0-12.5 4T97 842v24q0 35 32 60.5t77 25.5h969q45 0 77-25.5t32-60.5v-24q0-5-5.5-9.5T1266 828zM314 283h344q0-16 9-28.5t24-16.5h2l15-3q1-7 2.5-13t3.5-12l-3-3-8-7-1-1q-2-2-4-5l-4-6H296q-32 0-55 23t-23 55v503h96V283zm412-96l17 15q-6 12-9.5 25.5T729 255l-31 7q-7 2-11.5 8t-3.5 13v1q2 17 8 33t13 31q3 6 8 9t11 3h2.5q1.5 0 2.5-1l28-7q8 11 18 20.5t21 17.5l-7 28q-2 7 1.5 14t10.5 10q15 7 31 11t33 5h1q7 0 12.5-4t7.5-11l7-28q14-1 27.5-5t25.5-10l21 20q3 3 7 4.5t7 1.5q3 0 6-1t5-2q1-4 2.5-7.5t3.5-6.5q4-10 13-15.5t19-5.5h4q1-1 1.5-2t1.5-2q-1-7 1.5-14t7.5-13l-2-4q-1-2-3-3l-25-22q3-5 5-10.5t3-11.5q2-7 3.5-15t2.5-16l32-6q7-3 11-9t3-14q0-3-.5-5.5t-1.5-5.5q0-3-.5-5.5t-1.5-4.5q-3-10-6.5-19.5T1057 187l-1.5-3q-.5-1-1.5-2-2-6-7-9t-11-3h-2.5q-1.5 0-3.5 1l-28 7q-8-11-17.5-20.5T963 140l7-28q2-8-1-14.5T959 88q-16-7-32-11t-32-5h-1q-8 0-13.5 4T874 87l-7 28q-14 1-27.5 5T814 130l-22-20q-2-3-6-4.5t-8-1.5q-3 0-6.5 1t-5.5 3q-13 9-26.5 20.5T717 154q-5 6-4 13.5t6 12.5l7 7zm97 50q1-2 2-3.5t2-2.5q8-13 22-20.5t29-7.5q41 0 58 36.5T924 310q-6 7-15 11t-19 6h-10q-11 0-21-3.5t-18-9.5q-12-9-18.5-22.5T817 262q0-6 1.5-12.5T823 237zm347 262l14 4h2q4 0 6.5-1.5t3.5-4.5q4-8 6-15.5t2-15.5q1-4-1.5-7t-6.5-4l-4-1-9-3q-1-7-3-13.5t-4-12.5l9-10q3-3 3.5-7t-2.5-7q-2-4-5-7t-5-6q-2-1-3.5-2.5l-3.5-3.5q-2-1-4-3t-5-2q0-1-1-1h-2q-2 0-4 1t-3 3l-10 10q-6-3-13-5t-14-2l-3-14q-2-3-4.5-5t-6.5-2h-1q-8 0-16 2.5t-15 5.5l-.5.5-1.5 1.5q-2 1-3 4.5t0 5.5l3 14q-5 4-10 9t-9 11l-13-4h-3q-3 0-6 1.5t-4 4.5q-3 8-5.5 16t-2.5 15q-1 4 1.5 7.5t6.5 4.5l14 3q0 7 2 13.5t5 12.5l-10 10q-3 3-3 7t2 7q5 6 10.5 12t12.5 10q1 1 3 1.5t3 .5q2 0 4-.5t4-2.5v-1l10-10q6 3 13 5t13 2l4 14q1 3 4 5t7 2h1q8 0 15.5-2.5t14.5-5.5q4-2 5.5-5.5t.5-7.5l-4-13q3-2 6-5l6-6q2-1 3.5-3t3.5-5zm-36-24q-2 2-4 4.5t-5 4.5q-4 2-8.5 3.5t-8.5 1.5q-5 0-9-1t-8-4q-4-2-7.5-5.5t-4.5-7.5q-2-5-2.5-10t.5-10q2-7 7-13t12-9q3-1 5.5-1.5t6.5-.5q6 0 12.5 2.5t11.5 8.5q7 7 7 18t-5 19zm-51-264l14 3q1 7 3 13.5t5 12.5l-2 2-8 8q-3 3-3.5 7t2.5 7q4 7 10 12.5t13 10.5q1 1 2.5 1h3.5q2 0 4-.5t3-2.5l10-10q7 3 13.5 4.5t13.5 2.5l4 14q0 2 2.5 4t4.5 3q1 0 1.5.5t1.5.5h1q8-1 16-3.5t15-5.5q4-2 5.5-5.5t.5-6.5l-4-14q6-4 10.5-9t8.5-10l14 3h3q3 0 5.5-1.5t3.5-4.5q4-8 6-15.5t3-15.5q0-4-2.5-7.5t-6.5-4.5l-13-3q-1-7-3-13.5t-5-12.5l10-10q3-3 3.5-7t-2.5-7q-5-6-10.5-11.5T1227 129q-1-1-2.5-1.5t-3.5-.5q-2 0-4 1l-4 2-9 10q-7-3-13.5-4.5T1177 134l-4-14q-1-4-4-6t-6-2h-1q-8 1-16 3.5t-15 5.5q-4 2-5.5 5.5t-.5 6.5l4 14q-6 4-10.5 9t-8.5 10l-14-3h-3q-3 0-5.5 1.5t-4.5 4.5q-2 4-3 9t-2 9q-1 4-1.5 7t-.5 6q-1 4 1.5 7t5.5 4zm89-35q4 0 8.5 1.5t8.5 3.5q7 4 11 11t4 15q0 14-9.5 23t-22.5 9q-4 0-8-1t-7-3q-8-4-12-11t-4-16q0-8 4-15t10-11q4-3 8.5-4.5t8.5-1.5z"/></svg>