<svg viewBox="0 0 1381 1075.597" xmlns="http://www.w3.org/2000/svg"><path d="M926 242q-19 28-42.5 52T833 338q1 6 1 12v12q0 91-35 185-34 93-100.5 168.5T534 839q-98 48-225 48-79 0-151-22T25 804q11 1 22 1.5t23 .5q64 0 122.5-20.5T299 727q-61-1-108-37t-65-91q9 2 17.5 2.5t17.5.5q13 0 25-1.5t24-4.5q-64-13-106-63.5T62 415v-2q18 10 39 16t44 7q-37-25-59.5-65.5T63 282q0-25 6.5-48.5T88 189q34 42 76 76 42 35 90.5 60T357 364q54 15 112 18-3-10-4-20.5t-1-21.5q0-76 54-130.5T649 155q39 0 74 16t60 43q32-6 61.5-17.5T901 169q-11 32-32 58.5T819 271q28-3 55-10.5t52-18.5z"/></svg>